HIERARCHY
ROOT Hips
{
 OFFSET 0.000000 0.000000 0.000000
 CHANNELS 6 Xposition Yposition Zposition Yrotation Xrotation Zrotation
 JOINT Chest
 {
  OFFSET 0.000000 9.585900 0.002600
  CHANNELS 3 Yrotation Xrotation Zrotation
  JOINT Chest2
  {
   OFFSET 0.000000 9.601200 -0.005300
   CHANNELS 3 Yrotation Xrotation Zrotation
   JOINT Chest3
   {
    OFFSET 0.000000 9.561800 0.000000
    CHANNELS 3 Yrotation Xrotation Zrotation
    JOINT Chest4
    {
     OFFSET 0.000000 9.552100 0.000000
     CHANNELS 3 Yrotation Xrotation Zrotation
     JOINT Neck
     {
      OFFSET 0.000000 14.453000 0.000000
      CHANNELS 3 Yrotation Xrotation Zrotation
      JOINT Head
      {
       OFFSET 0.000000 8.936500 -0.011300
       CHANNELS 3 Yrotation Xrotation Zrotation
       End Site
       {
        OFFSET 0.000000 17.073600 -0.006000
       }
      }
     }
     JOINT RightCollar
     {
      OFFSET -2.921100 9.558500 0.000000
      CHANNELS 3 Yrotation Xrotation Zrotation
      JOINT RightShoulder
      {
       OFFSET -13.519700 0.000000 0.000000
       CHANNELS 3 Yrotation Xrotation Zrotation
       JOINT RightElbow
       {
        OFFSET 0.000000 -29.696600 0.000000
        CHANNELS 3 Yrotation Xrotation Zrotation
        JOINT RightWrist
        {
         OFFSET 0.000000 -24.004700 0.000000
         CHANNELS 3 Yrotation Xrotation Zrotation
         End Site
         {
          OFFSET 0.000000 -17.728500 0.000000
         }
        }
       }
      }
     }
     JOINT LeftCollar
     {
      OFFSET 2.921100 9.558500 0.000000
      CHANNELS 3 Yrotation Xrotation Zrotation
      JOINT LeftShoulder
      {
       OFFSET 13.519700 0.000000 0.000000
       CHANNELS 3 Yrotation Xrotation Zrotation
       JOINT LeftElbow
       {
        OFFSET 0.000000 -29.696600 0.000000
        CHANNELS 3 Yrotation Xrotation Zrotation
        JOINT LeftWrist
        {
         OFFSET 0.000000 -24.004700 0.000000
         CHANNELS 3 Yrotation Xrotation Zrotation
         End Site
         {
          OFFSET 0.000000 -17.728500 0.000000
         }
        }
       }
      }
     }
    }
   }
  }
 }
 JOINT RightHip
 {
  OFFSET -7.771700 -0.012900 -0.001300
  CHANNELS 3 Yrotation Xrotation Zrotation
  JOINT RightKnee
  {
   OFFSET 0.000000 -40.869800 0.001200
   CHANNELS 3 Yrotation Xrotation Zrotation
   JOINT RightAnkle
   {
    OFFSET 0.000000 -39.717900 0.002100
    CHANNELS 3 Yrotation Xrotation Zrotation
    JOINT RightToe
    {
     OFFSET 0.000000 -4.965400 11.033500
     CHANNELS 3 Yrotation Xrotation Zrotation
     End Site
     {
      OFFSET 0.000000 -1.423100 5.872300
     }
    }
   }
  }
 }
 JOINT LeftHip
 {
  OFFSET 7.771700 -0.012900 -0.001300
  CHANNELS 3 Yrotation Xrotation Zrotation
  JOINT LeftKnee
  {
   OFFSET 0.000000 -40.869800 0.001200
   CHANNELS 3 Yrotation Xrotation Zrotation
   JOINT LeftAnkle
   {
    OFFSET 0.000000 -39.717900 0.002100
    CHANNELS 3 Yrotation Xrotation Zrotation
    JOINT LeftToe
    {
     OFFSET 0.000000 -4.965400 11.033500
     CHANNELS 3 Yrotation Xrotation Zrotation
     End Site
     {
      OFFSET 0.000000 -1.423100 5.872300
     }
    }
   }
  }
 }
}
MOTION
Frames: 7
Frame Time: 0.008333
0.000000 85.388000 0.000000 0.000000 -5.767877 0.000000 0.000000 11.653817 0.000000 0.000000 -5.885947 0.000000 0.000000 -0.000000 0.000000 0.000000 -0.000000 0.000000 0.000000 12.528835 0.000000 0.000000 0.711642 0.000000 0.000000 -0.000000 0.000000 0.000000 0.000000 -90.000000 0.000000 -2.309062 0.000000 0.000000 2.309062 0.000000 0.000000 -0.000000 0.000000 0.000000 -0.000000 90.000000 0.000000 -2.309062 0.000000 0.000000 2.309062 0.000000 0.000000 8.520406 0.000000 0.000000 1.905762 0.000000 -0.000000 -4.658285 0.000000 0.000000 -0.000000 0.000000 0.000000 8.520406 0.000000 0.000000 1.905762 0.000000 -0.000000 -4.658285 0.000000 0.000000 -0.000000 0.000000
-20.117209 62.032564 11.929636 174.413828 -48.441425 -1.015062 4.826466 27.045791 2.131100 0.713301 4.664828 0.314585 1.139411 7.342370 0.526208 3.727498 21.942552 2.069251 4.373991 16.044441 9.690315 4.685454 -6.017497 16.451844 4.012008 6.503903 1.463654 -14.446811 -7.550500 -4.570090 -73.700239 -27.827513 123.577748 -19.440059 -15.469632 -23.622428 -7.802017 3.247113 3.837833 7.032886 -6.603920 2.626358 80.136445 -34.388231 -118.184349 43.825659 -19.442853 21.697288 2.823256 -18.801297 -4.285700 -2.029877 61.554638 -5.494892 1.717773 -7.526895 10.623833 0.236636 -0.418726 0.148967 -2.942370 -15.564244 4.355759 25.510495 77.367808 26.226603 1.340162 -12.297094 -3.549118 0.212160 0.656182 0.087024
-20.121353 62.035918 11.940450 174.419664 -48.428986 -1.009322 4.817017 27.070628 2.113205 0.715082 4.640586 0.318362 1.143440 7.400487 0.523964 3.738960 21.991287 2.070394 4.318856 15.995631 9.638541 4.601962 -6.060635 16.378582 4.053765 6.271332 1.436690 -14.349298 -7.502027 -4.663419 -74.622440 -28.838548 123.944716 -19.161585 -14.617308 -23.335628 -7.791532 3.037309 3.824679 6.833112 -6.616028 2.821564 80.513389 -34.879834 -118.709164 43.622235 -18.621071 20.609308 2.846606 -18.797877 -4.279962 -2.063828 61.520361 -5.530186 1.670885 -7.518803 10.620481 0.267277 -0.404187 0.169823 -2.948783 -15.573366 4.333555 25.515137 77.338309 26.240871 1.324571 -12.290461 -3.561579 0.262946 0.666504 0.095965
-20.121297 62.040231 11.952487 174.409096 -48.414637 -1.015908 4.831525 27.091261 2.125008 0.716792 4.656189 0.315577 1.152950 7.469629 0.523235 3.744671 21.957093 2.069446 4.261417 15.971486 9.582616 4.512806 -6.102425 16.296215 4.082669 6.090714 1.417296 -14.231068 -7.481304 -4.759291 -75.652019 -29.919884 124.350934 -18.850509 -13.750907 -22.994076 -7.777543 2.848981 3.810844 6.614161 -6.644786 3.025604 80.977418 -35.453194 -119.242702 43.400347 -17.855147 19.530032 2.856781 -18.802468 -4.258785 -2.048632 61.491052 -5.517992 1.661126 -7.515696 10.620702 0.265714 -0.404257 0.165741 -2.951016 -15.583769 4.332100 25.538428 77.308438 26.270130 1.377403 -12.266066 -3.585653 0.255155 0.664203 0.104899
-20.122852 62.043339 11.965934 174.379680 -48.382689 -0.997314 4.852273 27.094602 2.124223 0.721842 4.712923 0.313049 1.156530 7.452214 0.523923 3.750586 21.955819 2.066940 4.202424 15.950174 9.520216 4.423184 -6.139132 16.202253 4.105110 5.931919 1.397468 -14.097184 -7.474771 -4.852144 -76.773402 -31.055775 124.799422 -18.504238 -12.884474 -22.598640 -7.761817 2.662284 3.798839 6.380716 -6.687988 3.231077 81.519935 -36.085329 -119.784641 43.157342 -17.144166 18.495425 2.877249 -18.824493 -4.253055 -1.995138 61.456727 -5.474496 1.644792 -7.515402 10.625380 0.272321 -0.415954 0.152256 -2.939561 -15.611454 4.319385 25.585950 77.273833 26.327222 1.382986 -12.243768 -3.590650 0.233946 0.662015 0.098306
-20.127647 62.048170 11.976907 174.367556 -48.358243 -0.967711 4.849053 27.089807 2.098223 0.723327 4.727170 0.312574 1.160941 7.469442 0.523289 3.757774 21.966029 2.065672 4.143360 15.932157 9.452329 4.335765 -6.169976 16.097917 4.128227 5.776684 1.374725 -13.957214 -7.463239 -4.941874 -77.965148 -32.226585 125.298303 -18.129541 -12.041195 -22.165331 -7.745155 2.479063 3.788854 6.132536 -6.743855 3.430486 82.126681 -36.768475 -120.332113 42.887102 -16.485135 17.523882 2.900537 -18.841472 -4.271639 -2.000114 61.437567 -5.478518 1.627944 -7.517300 10.625568 0.285595 -0.416751 0.152641 -2.932415 -15.629017 4.269809 25.634403 77.230589 26.392569 1.397360 -12.219954 -3.597608 0.202129 0.663697 0.086957
-20.130405 62.054700 11.985124 174.375890 -48.343259 -0.960221 4.835988 27.094335 2.080785 0.724084 4.719526 0.312879 1.163572 7.481161 0.522886 3.768482 21.987568 2.063974 4.085763 15.918405 9.381296 4.252636 -6.193394 15.987046 4.150207 5.622850 1.352649 -13.818616 -7.446583 -5.032040 -79.201120 -33.402690 125.846134 -17.722950 -11.222151 -21.704857 -7.729878 2.303074 3.781294 5.866683 -6.811302 3.622423 82.783039 -37.498518 -120.874633 42.581666 -15.868753 16.627773 2.903073 -18.847585 -4.278691 -2.016371 61.421072 -5.497312 1.615236 -7.515525 10.627825 0.298941 -0.425337 0.152024 -2.935344 -15.638463 4.246296 25.593759 77.205256 26.360704 1.390381 -12.198466 -3.593679 0.204810 0.660317 0.080773
